<svg width="58" height="58" viewBox="0 0 58 58" fill="none" xmlns="http://www.w3.org/2000/svg">
<rect width="57.7778" height="57.7778" rx="28.8889" fill="#2E7D32" style="fill:#2E7D32;fill:color(display-p3 0.1804 0.4902 0.1961);fill-opacity:1;"/>
<g clip-path="url(#clip0_2950_296)">
<path d="M37.7978 29.4663C37.9686 29.4388 38.0399 29.4842 38.1866 29.5498C39.0908 29.9551 40.0114 30.6735 40.9132 31.1194C41.4904 31.5285 41.0669 32.3374 40.3912 32.1646L37.6342 30.5905C37.1591 30.2976 37.2118 29.5603 37.7978 29.4663Z" fill="white" style="fill:white;fill-opacity:1;"/>
<path d="M15.5075 24.3345L18.8161 24.3282C19.4132 24.4215 19.4401 25.3874 18.851 25.4761C18.3022 25.5585 17.7292 25.4754 17.1765 25.4785C16.7244 25.4813 16.2681 25.4751 15.8121 25.4768C15.5931 25.4775 15.5501 25.5606 15.3052 25.4276C14.7961 25.1514 14.9652 24.4386 15.5075 24.3345Z" fill="white" style="fill:white;fill-opacity:1;"/>
<path d="M39.1953 24.3345L42.504 24.3282C43.1133 24.4599 43.129 25.3497 42.5029 25.4751C42.0201 25.5718 41.4348 25.4754 40.9342 25.4785C40.4828 25.4813 40.0244 25.4723 39.5699 25.4768C39.4518 25.4778 39.363 25.5267 39.2254 25.5103C38.5381 25.4293 38.4983 24.4633 39.1953 24.3345Z" fill="white" style="fill:white;fill-opacity:1;"/>
<path d="M22.1455 12.7447C22.3111 12.7143 22.49 12.7398 22.6266 12.8407C23.3065 13.7763 23.8103 14.8494 24.4056 15.8458C24.5586 16.514 23.7505 16.9001 23.3435 16.3136C22.8816 15.4094 22.2443 14.5412 21.786 13.6457C21.7 13.4782 21.6609 13.282 21.7328 13.1001C21.78 12.9803 22.0176 12.7681 22.1455 12.7447Z" fill="white" style="fill:white;fill-opacity:1;"/>
<path d="M16.9608 32.0299C16.7145 31.7838 16.7676 31.2818 17.0768 31.1048L19.8498 29.5118C20.1947 29.3537 20.6328 29.6284 20.6527 30.0009C20.6684 30.29 20.5723 30.4205 20.3487 30.5689C19.6336 31.0423 18.6183 31.6347 17.8531 32.0201C17.5708 32.1622 17.2295 32.2984 16.9608 32.0299Z" fill="white" style="fill:white;fill-opacity:1;"/>
<path d="M28.8185 10.9639C29.2866 10.8672 29.5766 11.1462 29.5892 11.6018C29.6032 12.1083 29.5647 12.6341 29.5619 13.1382C29.5588 13.6643 29.6472 14.2232 29.5588 14.7409C29.4452 15.4038 28.4785 15.333 28.4079 14.7444C28.286 13.7295 28.4984 12.4707 28.4118 11.43C28.4376 11.2467 28.6301 11.0027 28.8185 10.9636V10.9639Z" fill="white" style="fill:white;fill-opacity:1;"/>
<path d="M16.9614 17.8106C17.0813 17.6912 17.2801 17.6018 17.4516 17.6259C18.455 18.1129 19.3963 18.743 20.384 19.2709C20.9538 19.6814 20.5719 20.5126 19.8819 20.3311L17.1477 18.7692C16.7819 18.5922 16.6673 18.1035 16.9614 17.8109V17.8106Z" fill="white" style="fill:white;fill-opacity:1;"/>
<path d="M35.597 12.7444C36.0753 12.6679 36.4012 13.1343 36.2063 13.563C35.7944 14.2801 35.4135 15.0216 34.9842 15.7282C34.8853 15.8905 34.6302 16.3506 34.5233 16.4546C34.3804 16.5936 34.0842 16.6086 33.9035 16.5496C33.6031 16.4515 33.4755 16.0144 33.6003 15.7418C34.0104 15.0362 34.4258 14.3342 34.8444 13.6335C35.0373 13.3106 35.1809 12.8111 35.5973 12.7444H35.597Z" fill="white" style="fill:white;fill-opacity:1;"/>
<path d="M40.4174 17.6664C41.1117 17.5225 41.4153 18.2605 40.9342 18.7063L38.1405 20.3136C37.513 20.5346 37.0197 19.8022 37.5106 19.3351C38.3484 18.8537 39.1677 18.3188 40.0184 17.8612C40.1072 17.8133 40.3367 17.6831 40.4174 17.6664Z" fill="white" style="fill:white;fill-opacity:1;"/>
<path d="M28.5059 16.1327C35.7265 15.7047 40.1944 23.7987 36.1231 29.7834C34.598 32.025 33.5684 33.6982 33.1352 36.468C32.8197 38.4844 33.1058 40.3916 32.9514 42.3588C32.8588 43.537 31.7293 44.644 30.5564 44.7484C29.7553 44.8196 28.2886 44.8123 27.4812 44.7501C26.1881 44.651 25.1176 43.5335 25.0198 42.2523C24.9205 40.954 25.0708 39.5206 25.0208 38.2017C24.9272 35.7349 24.1292 33.2612 22.833 31.1714C22.4361 30.5315 21.9354 29.9583 21.5459 29.3156C18.1426 23.6968 22.0032 16.5182 28.5059 16.1327ZM31.7974 38.4652C31.8414 35.7813 32.6122 33.1767 33.9702 30.8789C34.5771 29.8522 35.4236 28.941 35.9012 27.8511C37.9053 23.281 34.9537 18.0158 30.0281 17.3487C24.2634 16.5681 19.7525 22.382 22.043 27.7712C22.4906 28.8244 23.1635 29.5484 23.762 30.4872C25.265 32.8457 26.1133 35.6598 26.172 38.4649H31.7971L31.7974 38.4652ZM31.8323 39.6173H26.1724C26.207 39.7625 26.0819 40.0781 26.2674 40.0966L31.7792 40.7348L31.832 39.6169L31.8323 39.6173ZM26.1727 41.2232L26.1231 41.6546L31.7859 42.304L31.8355 41.8725L26.1727 41.2232ZM31.0637 43.353L26.382 42.8294C26.6252 43.2235 27.0231 43.5143 27.4864 43.5932C28.4357 43.5314 29.5184 43.6892 30.4519 43.5967C30.6368 43.5782 30.9306 43.4808 31.0637 43.353Z" fill="white" style="fill:white;fill-opacity:1;"/>
<path d="M28.9945 18.1223C29.4637 18.0629 30.5139 18.2686 30.9859 18.4166C33.8788 19.3257 35.8895 22.1632 35.6767 25.2182C35.6467 25.6507 35.5157 26.0253 34.9972 25.9645C34.7261 25.9328 34.4895 25.658 34.486 25.3892C34.4783 24.7832 34.5409 24.2766 34.4074 23.6552C33.9099 21.3375 31.8793 19.518 29.5077 19.2998C29.3183 19.2824 29.1035 19.3218 28.9173 19.2963C28.2195 19.2014 28.2119 18.2211 28.9941 18.1223H28.9945Z" fill="white" style="fill:white;fill-opacity:1;"/>
<path d="M23.3324 27.0568C24.0158 26.9022 24.1255 27.5138 24.4179 27.9474C24.9895 28.7947 25.5817 29.5306 26.074 30.447C26.451 31.149 27.1204 32.4997 27.2885 33.2482C27.4666 34.042 26.7892 34.417 26.2476 33.8343C25.7648 32.3841 25.1069 30.9821 24.2656 29.7055C23.8942 29.142 23.3111 28.5304 23.0501 27.9177C22.9743 27.74 22.9201 27.6381 22.975 27.4321C23.0047 27.3201 23.2168 27.0827 23.3328 27.0565L23.3324 27.0568Z" fill="white" style="fill:white;fill-opacity:1;"/>
<path d="M34.5852 26.6376C34.9835 26.6058 35.2351 26.9682 35.1781 27.3375C35.132 27.6377 34.4423 28.8467 34.1859 28.9992C33.6821 29.2984 33.1713 28.8264 33.3166 28.2703C33.3491 28.1453 33.688 27.7484 33.7827 27.5836C33.9822 27.2363 34.0951 26.6767 34.5856 26.6376H34.5852Z" fill="white" style="fill:white;fill-opacity:1;"/>
<path d="M22.7389 24.1949C23.0698 24.1342 23.3936 24.3189 23.4443 24.661C23.4789 24.8959 23.5442 25.6318 23.5086 25.8368C23.4066 26.4246 22.6093 26.4959 22.4007 25.9481C22.2906 25.6591 22.2333 24.8062 22.3396 24.5294C22.3976 24.3782 22.5782 24.2249 22.7385 24.1953L22.7389 24.1949Z" fill="white" style="fill:white;fill-opacity:1;"/>
</g>
<defs>
<clipPath id="clip0_2950_296">
<rect width="36.1111" height="36.1111" fill="white" style="fill:white;fill-opacity:1;" transform="translate(10.8335 10.8334)"/>
</clipPath>
</defs>
</svg>
