<svg width="58" height="58" viewBox="0 0 58 58" fill="none" xmlns="http://www.w3.org/2000/svg">
<rect width="57.7778" height="57.7778" rx="28.8889" fill="#2E7D32" style="fill:#2E7D32;fill:color(display-p3 0.1804 0.4902 0.1961);fill-opacity:1;"/>
<g clip-path="url(#clip0_2950_288)">
<path d="M19.5459 39.7057C19.2825 41.0218 17.0682 40.9987 16.0467 40.9077C15.1812 40.8307 14.331 40.7345 14.1085 39.7724C13.9999 39.3029 13.9423 38.1984 13.9155 37.657C13.803 35.3839 13.7825 32.0897 14.0842 29.8627C14.2402 28.7159 14.7912 27.6961 14.9447 26.5569C13.7084 26.6672 12.4913 24.6173 13.22 23.609C13.9948 22.5392 16.218 23.2126 16.4545 23.0715C16.6783 22.9381 18.0526 19.141 18.5448 18.4329C19.1099 17.6171 20.1685 17.1245 21.1388 17.059C26.1427 17.3451 31.5327 16.6947 36.4906 17.059C38.5809 17.2117 39.3288 18.0365 40.1509 19.8004C40.6303 20.8305 41.0535 22.0017 41.4178 23.0818C42.4202 22.9009 44.871 22.7919 44.9924 24.185C45.0883 25.2869 44.1717 26.5184 43.0696 26.5582C43.1693 27.4882 43.604 28.3298 43.7766 29.247C44.1077 31.0018 44.3289 37.8995 43.9057 39.5197C43.8572 39.7044 43.7178 40.1046 43.6206 40.2496C43.0568 41.0962 39.7392 41.086 38.9415 40.5446C38.8328 40.4715 38.4659 39.7878 38.4659 39.7057V37.3966H19.5459C19.4525 38.0804 19.6724 39.0707 19.5459 39.7057ZM22.9709 18.3842C21.539 18.4919 20.8422 18.6548 20.079 19.9723C19.0651 21.7233 18.4962 24.2645 17.6473 26.1413C17.5975 26.6121 18.2687 26.9867 18.7085 26.9469C25.2222 26.5877 32.2065 27.4036 38.664 26.9469C39.9156 26.8584 40.5408 26.884 40.1688 25.4255C39.9514 24.5724 37.9353 19.9274 37.4405 19.3129C36.3884 18.0057 33.9503 18.3226 32.3893 18.3418C29.3594 18.379 25.9152 18.1622 22.9721 18.3855L22.9709 18.3842ZM21.4635 30.6619V33.4841H36.5494V30.6619H21.4635ZM18.9936 31.4713C17.3341 29.4984 14.4512 32.7529 16.9199 34.0023C18.5627 34.8336 20.079 32.7618 18.9936 31.4713ZM42.0021 32.5463C42.0021 31.6279 41.2606 30.8838 40.3452 30.8838C39.4298 30.8838 38.6883 31.6279 38.6883 32.5463C38.6883 33.4648 39.4298 34.2089 40.3452 34.2089C41.2606 34.2089 42.0021 33.4648 42.0021 32.5463Z" fill="white" style="fill:white;fill-opacity:1;"/>
</g>
<defs>
<clipPath id="clip0_2950_288">
<rect width="32" height="24" fill="white" style="fill:white;fill-opacity:1;" transform="translate(13 16.9448)"/>
</clipPath>
</defs>
</svg>
