<svg width="58" height="58" viewBox="0 0 58 58" fill="none" xmlns="http://www.w3.org/2000/svg">
<rect width="57.7778" height="57.7778" rx="28.8889" fill="#2E7D32" style="fill:#2E7D32;fill:color(display-p3 0.1804 0.4902 0.1961);fill-opacity:1;"/>
<path d="M19.7021 31.163C19.8753 33.7857 21.353 36.2785 23.5011 37.7602C29.1566 41.6617 36.9636 37.9527 37.4752 31.163H43.9122C43.8837 31.7959 43.4411 32.3906 42.8857 32.6715C42.4978 32.868 42.0483 32.9187 41.6518 33.0896C39.9537 33.8227 39.0582 36.2437 39.7264 37.9407C40.0078 38.6556 40.5 39.01 40.3753 39.902C40.3001 40.4398 39.5675 41.2413 39.1568 41.5888C37.6011 42.9069 36.791 41.366 35.2809 41.3034C33.8397 41.2436 31.9194 42.1715 31.2557 43.4857C30.8917 44.2069 30.9812 45.1007 30.1079 45.5279C29.5639 45.7945 28.1409 45.8782 27.5616 45.7182C26.2616 45.3593 26.5362 44.114 25.8828 43.2954C24.9007 42.065 22.4985 40.9172 20.9724 41.6332C20.466 41.8707 20.1094 42.3851 19.4452 42.384C18.5611 42.3823 16.9456 40.9058 16.8533 40.0211C16.7599 39.1267 17.2663 38.7798 17.5243 38.0706C18.0775 36.5502 17.1877 34.4232 15.9692 33.4422C14.9809 32.6458 13.1893 32.9774 13.2645 31.1625H19.7015L19.7021 31.163Z" fill="white" style="fill:white;fill-opacity:1;"/>
<path d="M12.0117 29.2548C12.1 28.5963 12.6788 27.9754 13.3191 27.8278C13.4472 27.7982 13.7412 27.8278 13.7839 27.768C13.9702 27.5082 14.0078 26.5461 14.0716 26.1878C14.8395 21.8756 16.7791 18.7134 20.3873 16.211L20.5559 16.1808L22.7337 23.6022C23.2708 24.9346 24.4597 25.8944 25.8895 26.0858C28.8209 25.8557 33.095 27.1676 34.4394 23.5993C35.2534 21.4392 35.7553 18.841 36.4907 16.5932C36.5243 16.4907 36.5864 16.158 36.7055 16.1791C36.7721 16.191 37.0968 16.4348 37.1845 16.4992C40.0812 18.6246 42.0835 21.5298 42.8582 25.0667C42.9801 25.6244 43.0234 26.1832 43.1305 26.7312C43.1647 26.9073 43.3521 27.7224 43.4649 27.7919C43.4928 27.809 43.9332 27.8552 44.1029 27.9229C45.04 28.2949 45.2297 29.2206 45.1642 30.1372H12.0117C12.0379 29.8586 11.9753 29.5248 12.0117 29.2542V29.2548Z" fill="white" style="fill:white;fill-opacity:1;"/>
<path d="M27.5519 11.983C28.3061 11.9397 30.1774 11.8548 30.7727 12.261C31.1715 12.5327 31.0194 12.8437 31.1646 13.2362C31.4774 14.0839 32.5489 14.0417 33.2581 14.2758C33.3897 14.3191 34.2026 14.6723 34.2242 14.7372C33.9599 15.7934 33.6096 16.8256 33.3333 17.8783C33.1043 18.7504 32.7585 20.959 32.2902 21.5634C31.9445 22.0105 31.4677 22.2868 30.898 22.3358C29.3936 22.4651 27.6994 22.2407 26.1751 22.3267C25.5764 22.268 24.8586 21.7525 24.6302 21.1942C24.2918 20.3665 24.1004 18.9133 23.856 17.9808C23.5718 16.8945 23.21 15.831 22.9531 14.7372C23.7404 14.0332 25.3382 14.3618 25.7507 13.259C25.917 12.8141 25.7211 12.5617 26.1768 12.261C26.5761 11.9978 27.0871 12.0098 27.5513 11.9836L27.5519 11.983Z" fill="white" style="fill:white;fill-opacity:1;"/>
</svg>
