<svg width="58" height="58" viewBox="0 0 58 58" fill="none" xmlns="http://www.w3.org/2000/svg">
<rect width="57.7778" height="57.7778" rx="28.8889" fill="#2E7D32" style="fill:#2E7D32;fill:color(display-p3 0.1804 0.4902 0.1961);fill-opacity:1;"/>
<path d="M38.2802 26.0325C37.6317 26.673 37.4039 27.7899 37.4262 28.6837C34.9614 28.749 32.4759 28.5961 30.0111 28.6757C28.9707 28.7092 28.6744 28.7092 27.634 28.6757C25.1676 28.5945 22.6837 28.749 20.2173 28.6837C20.3942 27.0299 19.6278 25.8684 18.1397 25.2311C17.8386 22.5305 18.8838 20.3956 21.7516 20.0992C26.2048 19.6372 31.3654 20.3876 35.8919 20.0992C37.5919 20.2283 39.303 21.3977 39.4974 23.1854C39.5356 23.5375 39.5627 24.9889 39.4767 25.2359C39.413 25.4191 38.5558 25.7601 38.2802 26.0309V26.0325Z" fill="white" style="fill:white;fill-opacity:1;"/>
<path d="M19.5818 28.6837C19.5053 28.7602 18.0045 28.3969 17.7017 29.4326C17.603 29.7703 17.5982 32.3498 17.6731 32.7418C17.74 33.0939 18.1176 33.4046 18.4187 33.5894L38.9415 33.6244C40.6591 33.6866 40.3834 29.38 39.5597 28.8574C38.6372 28.2727 37.7179 29.4533 38.0987 27.5238C38.5114 25.4287 42.0325 25.2502 43.1621 26.5296C43.7293 27.1717 43.6767 27.946 43.6178 28.7411C43.4441 31.0529 42.6682 33.5496 42.4881 35.8948C42.3511 36.282 41.8731 36.4716 41.4924 36.4923L15.7484 36.419C15.4313 36.3059 15.2226 36.0653 15.1605 35.7323C15.0521 33.3504 14.0803 30.5972 14.0022 28.279C13.9225 25.9115 16.0336 25.4749 17.9965 25.886C18.7756 26.0501 19.4416 26.6969 19.5706 27.4983C19.6009 27.6863 19.6232 28.6423 19.5818 28.6837Z" fill="white" style="fill:white;fill-opacity:1;"/>
<path d="M29.1416 33.1449V29.56C29.1416 29.3115 30.1119 29.1744 30.3302 29.1553C33.0849 28.9243 36.2364 29.2812 39.0278 29.2334C39.2987 29.3226 39.4436 29.4278 39.4978 29.7193C39.5647 30.0778 39.5376 32.6286 39.4182 32.8262C39.3751 32.8979 38.9848 33.1449 38.9402 33.1449H29.1416Z" fill="white" style="fill:white;fill-opacity:1;"/>
<path d="M28.5042 33.1449H18.7056C17.96 33.1449 18.0811 30.7694 18.1384 30.1878C18.1862 29.6955 18.2484 29.4278 18.7391 29.1952C21.5066 29.3099 24.5848 28.9259 27.3156 29.1554C27.5339 29.1745 28.5042 29.3115 28.5042 29.5601V33.1449Z" fill="white" style="fill:white;fill-opacity:1;"/>
<path d="M21.0157 36.6501C21.0985 38.4585 21.2292 39.0958 19.1723 38.8903C17.7846 38.7517 18.1908 37.7383 18.1478 36.6501H21.0157Z" fill="white" style="fill:white;fill-opacity:1;"/>
<path d="M39.6569 36.6501C39.5693 38.0076 40.1269 38.8218 38.4683 38.8871C36.4688 38.9668 36.7875 38.4489 36.789 36.6501H39.6569Z" fill="white" style="fill:white;fill-opacity:1;"/>
</svg>
