<svg width="31" height="34" viewBox="0 0 31 34" fill="none" xmlns="http://www.w3.org/2000/svg">
<path d="M8.99672 25.1946C8.61142 25.1946 8.35456 25.0589 8.0977 24.7876C7.58397 24.2451 7.58397 23.4313 8.0977 22.8888L20.9409 9.32512C21.4546 8.78258 22.2252 8.78258 22.7389 9.32512C23.2526 9.86767 23.2526 10.6815 22.7389 11.224L9.89573 24.7876C9.63887 25.0589 9.38201 25.1946 8.99672 25.1946Z" fill="white" style="fill:white;fill-opacity:1;"/>
<path d="M21.8397 23.8383C21.0692 23.8383 20.5554 23.2957 20.5554 22.4819V11.6309H10.2809C9.51031 11.6309 8.99658 11.0884 8.99658 10.2746C8.99658 9.46076 9.51031 8.91821 10.2809 8.91821H21.8397C22.6103 8.91821 23.1241 9.46076 23.1241 10.2746V22.4819C23.1241 23.2957 22.6103 23.8383 21.8397 23.8383Z" fill="white" style="fill:white;fill-opacity:1;"/>
</svg>
