<svg width="21" height="18" viewBox="0 0 21 18" fill="none" xmlns="http://www.w3.org/2000/svg">
<path d="M15.7767 0.490001C16.7593 0.490001 17.5633 0.691001 18.1887 1.093C18.814 1.495 19.3277 2.00867 19.7297 2.634C20.1763 3.39334 20.489 4.175 20.6677 4.979C20.8017 5.82767 20.8687 6.52 20.8687 7.056C20.8687 9.24467 20.3103 11.2323 19.1937 13.019C18.077 14.8057 16.335 16.2573 13.9677 17.374L13.3647 16.168C14.7493 15.5873 15.9553 14.6717 16.9827 13.421C17.9653 12.1703 18.4567 10.8973 18.4567 9.602C18.4567 9.066 18.3897 8.597 18.2557 8.195C17.541 8.77567 16.7147 9.066 15.7767 9.066C14.6153 9.066 13.6103 8.68633 12.7617 7.927C11.913 7.16767 11.4887 6.118 11.4887 4.778C11.4887 3.52733 11.913 2.5 12.7617 1.696C13.6103 0.892001 14.6153 0.49 15.7767 0.490001ZM4.38668 0.49C5.36934 0.49 6.17334 0.691 6.79868 1.093C7.42401 1.495 7.93768 2.00867 8.33968 2.634C8.78634 3.39333 9.09901 4.175 9.27768 4.979C9.41168 5.82767 9.47868 6.52 9.47868 7.056C9.47868 9.24467 8.92034 11.2323 7.80368 13.019C6.68701 14.8057 4.94501 16.2573 2.57768 17.374L1.97468 16.168C3.35934 15.5873 4.56534 14.6717 5.59268 13.421C6.57534 12.1703 7.06668 10.8973 7.06668 9.602C7.06668 9.066 6.99968 8.597 6.86568 8.195C6.15101 8.77567 5.32468 9.066 4.38668 9.066C3.22534 9.066 2.22034 8.68633 1.37168 7.927C0.52301 7.16767 0.0986772 6.118 0.0986773 4.778C0.0986774 3.52733 0.523011 2.5 1.37168 1.696C2.22034 0.892 3.22534 0.49 4.38668 0.49Z" fill="#2E7D32" style="fill:#2E7D32;fill:color(display-p3 0.1804 0.4902 0.1961);fill-opacity:1;"/>
</svg>
