<svg width="21" height="18" viewBox="0 0 21 18" fill="none" xmlns="http://www.w3.org/2000/svg">
<path d="M5.22332 17.51C4.24066 17.51 3.43666 17.309 2.81132 16.907C2.18599 16.505 1.67232 15.9913 1.27032 15.366C0.823657 14.6067 0.51099 13.825 0.332324 13.021C0.198324 12.1723 0.131324 11.48 0.131324 10.944C0.131324 8.75533 0.689657 6.76766 1.80632 4.981C2.92299 3.19433 4.66499 1.74266 7.03232 0.625996L7.63532 1.832C6.25066 2.41266 5.04466 3.32833 4.01732 4.579C3.03466 5.82966 2.54332 7.10266 2.54332 8.398C2.54332 8.934 2.61032 9.403 2.74432 9.805C3.45899 9.22433 4.28532 8.934 5.22332 8.934C6.38466 8.934 7.38966 9.31366 8.23832 10.073C9.08699 10.8323 9.51132 11.882 9.51132 13.222C9.51132 14.4727 9.08699 15.5 8.23832 16.304C7.38966 17.108 6.38466 17.51 5.22332 17.51ZM16.6133 17.51C15.6307 17.51 14.8267 17.309 14.2013 16.907C13.576 16.505 13.0623 15.9913 12.6603 15.366C12.2137 14.6067 11.901 13.825 11.7223 13.021C11.5883 12.1723 11.5213 11.48 11.5213 10.944C11.5213 8.75533 12.0797 6.76766 13.1963 4.981C14.313 3.19433 16.055 1.74266 18.4223 0.625996L19.0253 1.832C17.6407 2.41266 16.4347 3.32833 15.4073 4.579C14.4247 5.82966 13.9333 7.10266 13.9333 8.398C13.9333 8.934 14.0003 9.403 14.1343 9.805C14.849 9.22433 15.6753 8.934 16.6133 8.934C17.7747 8.934 18.7797 9.31366 19.6283 10.073C20.477 10.8323 20.9013 11.882 20.9013 13.222C20.9013 14.4727 20.477 15.5 19.6283 16.304C18.7797 17.108 17.7747 17.51 16.6133 17.51Z" fill="#2E7D32" style="fill:#2E7D32;fill:color(display-p3 0.1804 0.4902 0.1961);fill-opacity:1;"/>
</svg>
