<svg width="148" height="16" viewBox="0 0 148 16" fill="none" xmlns="http://www.w3.org/2000/svg">
<path d="M15.5865 9.93362C15.333 10.1428 15.2164 10.4453 15.2742 10.742L16.1447 14.842C16.2181 15.1895 16.0458 15.5411 15.704 15.742C15.3692 15.9503 14.9237 15.9753 14.5585 15.8086L10.2219 13.8836C10.0711 13.8153 9.90372 13.7786 9.73237 13.7745H9.46703C9.37499 13.7861 9.28491 13.8111 9.20266 13.8495L4.86514 15.7836C4.65072 15.8753 4.40789 15.9078 4.16997 15.8753C3.59033 15.782 3.20357 15.312 3.29855 14.8161L4.16997 10.7161C4.22774 10.417 4.11122 10.1128 3.85763 9.90029L0.32201 6.98362C0.0263148 6.73945 -0.0764933 6.37279 0.0586258 6.04195C0.189828 5.71195 0.524689 5.47112 0.929067 5.41695L5.79531 4.81612C6.16542 4.78362 6.49049 4.59195 6.65694 4.30862L8.80122 0.566952C8.85214 0.483618 8.91774 0.406952 8.99705 0.341952L9.08517 0.283618C9.13119 0.240285 9.18406 0.204452 9.24281 0.175285L9.34953 0.141952L9.51598 0.0836182H9.92819C10.2963 0.116118 10.6204 0.303618 10.7898 0.583618L12.9625 4.30862C13.1192 4.58112 13.4237 4.77029 13.7752 4.81612L18.6414 5.41695C19.0526 5.46695 19.3963 5.70862 19.5324 6.04195C19.6607 6.37612 19.55 6.74279 19.2485 6.98362L15.5865 9.93362Z" fill="#FF9900" style="fill:#FF9900;fill:color(display-p3 1.0000 0.6000 0.0000);fill-opacity:1;"/>
<path d="M47.4777 9.93362C47.2241 10.1428 47.1076 10.4453 47.1653 10.742L48.0358 14.842C48.1092 15.1895 47.9369 15.5411 47.5952 15.742C47.2603 15.9503 46.8148 15.9753 46.4496 15.8086L42.113 13.8836C41.9623 13.8153 41.7948 13.7786 41.6235 13.7745H41.3581C41.2661 13.7861 41.176 13.8111 41.0938 13.8495L36.7563 15.7836C36.5418 15.8753 36.299 15.9078 36.0611 15.8753C35.4814 15.782 35.0947 15.312 35.1897 14.8161L36.0611 10.7161C36.1188 10.417 36.0023 10.1128 35.7487 9.90029L32.2131 6.98362C31.9174 6.73945 31.8146 6.37279 31.9497 6.04195C32.0809 5.71195 32.4158 5.47112 32.8202 5.41695L37.6864 4.81612C38.0565 4.78362 38.3816 4.59195 38.5481 4.30862L40.6923 0.566952C40.7432 0.483618 40.8089 0.406952 40.8882 0.341952L40.9763 0.283618C41.0223 0.240285 41.0752 0.204452 41.1339 0.175285L41.2406 0.141952L41.4071 0.0836182H41.8193C42.1875 0.116118 42.5115 0.303618 42.6809 0.583618L44.8536 4.30862C45.0103 4.58112 45.3148 4.77029 45.6663 4.81612L50.5325 5.41695C50.9438 5.46695 51.2874 5.70862 51.4235 6.04195C51.5518 6.37612 51.4412 6.74279 51.1396 6.98362L47.4777 9.93362Z" fill="#FF9900" style="fill:#FF9900;fill:color(display-p3 1.0000 0.6000 0.0000);fill-opacity:1;"/>
<path d="M79.3693 9.93362C79.1157 10.1428 78.9992 10.4453 79.0569 10.742L79.9274 14.842C80.0008 15.1895 79.8285 15.5411 79.4868 15.742C79.1519 15.9503 78.7064 15.9753 78.3412 15.8086L74.0046 13.8836C73.8539 13.8153 73.6864 13.7786 73.5151 13.7745H73.2497C73.1577 13.7861 73.0676 13.8111 72.9854 13.8495L68.6479 15.7836C68.4334 15.8753 68.1906 15.9078 67.9527 15.8753C67.373 15.782 66.9863 15.312 67.0813 14.8161L67.9527 10.7161C68.0104 10.417 67.8939 10.1128 67.6403 9.90029L64.1047 6.98362C63.809 6.73945 63.7062 6.37279 63.8413 6.04195C63.9725 5.71195 64.3074 5.47112 64.7118 5.41695L69.578 4.81612C69.9481 4.78362 70.2732 4.59195 70.4397 4.30862L72.5839 0.566952C72.6349 0.483618 72.7005 0.406952 72.7798 0.341952L72.8679 0.283618C72.9139 0.240285 72.9668 0.204452 73.0255 0.175285L73.1322 0.141952L73.2987 0.0836182H73.7109C74.0791 0.116118 74.4031 0.303618 74.5725 0.583618L76.7452 4.30862C76.9019 4.58112 77.2064 4.77029 77.5579 4.81612L82.4241 5.41695C82.8354 5.46695 83.179 5.70862 83.3151 6.04195C83.4434 6.37612 83.3328 6.74279 83.0312 6.98362L79.3693 9.93362Z" fill="#FF9900" style="fill:#FF9900;fill:color(display-p3 1.0000 0.6000 0.0000);fill-opacity:1;"/>
<path d="M111.26 9.93362C111.007 10.1428 110.89 10.4453 110.948 10.742L111.818 14.842C111.892 15.1895 111.72 15.5411 111.378 15.742C111.043 15.9503 110.598 15.9753 110.232 15.8086L105.896 13.8836C105.745 13.8153 105.578 13.7786 105.406 13.7745H105.141C105.049 13.7861 104.959 13.8111 104.876 13.8495L100.539 15.7836C100.325 15.8753 100.082 15.9078 99.8438 15.8753C99.2642 15.782 98.8774 15.312 98.9724 14.8161L99.8438 10.7161C99.9016 10.417 99.785 10.1128 99.5315 9.90029L95.9958 6.98362C95.7001 6.73945 95.5973 6.37279 95.7325 6.04195C95.8637 5.71195 96.1985 5.47112 96.6029 5.41695L101.469 4.81612C101.839 4.78362 102.164 4.59195 102.331 4.30862L104.475 0.566952C104.526 0.483618 104.592 0.406952 104.671 0.341952L104.759 0.283618C104.805 0.240285 104.858 0.204452 104.917 0.175285L105.023 0.141952L105.19 0.0836182H105.602C105.97 0.116118 106.294 0.303618 106.464 0.583618L108.636 4.30862C108.793 4.58112 109.097 4.77029 109.449 4.81612L114.315 5.41695C114.726 5.46695 115.07 5.70862 115.206 6.04195C115.335 6.37612 115.224 6.74279 114.922 6.98362L111.26 9.93362Z" fill="#FF9900" style="fill:#FF9900;fill:color(display-p3 1.0000 0.6000 0.0000);fill-opacity:1;"/>
<path d="M143.152 9.93362C142.898 10.1428 142.782 10.4453 142.84 10.742L143.71 14.842C143.784 15.1895 143.611 15.5411 143.269 15.742C142.935 15.9503 142.489 15.9753 142.124 15.8086L137.787 13.8836C137.637 13.8153 137.469 13.7786 137.298 13.7745H137.032C136.94 13.7861 136.85 13.8111 136.768 13.8495L132.431 15.7836C132.216 15.8753 131.973 15.9078 131.735 15.8753C131.156 15.782 130.769 15.312 130.864 14.8161L131.735 10.7161C131.793 10.417 131.677 10.1128 131.423 9.90029L127.887 6.98362C127.592 6.73945 127.489 6.37279 127.624 6.04195C127.755 5.71195 128.09 5.47112 128.494 5.41695L133.361 4.81612C133.731 4.78362 134.056 4.59195 134.222 4.30862L136.367 0.566952C136.418 0.483618 136.483 0.406952 136.562 0.341952L136.651 0.283618C136.697 0.240285 136.749 0.204452 136.808 0.175285L136.915 0.141952L137.081 0.0836182H137.494C137.862 0.116118 138.186 0.303618 138.355 0.583618L140.528 4.30862C140.685 4.58112 140.989 4.77029 141.341 4.81612L146.207 5.41695C146.618 5.46695 146.962 5.70862 147.098 6.04195C147.226 6.37612 147.115 6.74279 146.814 6.98362L143.152 9.93362Z" fill="#FF9900" style="fill:#FF9900;fill:color(display-p3 1.0000 0.6000 0.0000);fill-opacity:1;"/>
</svg>
