<svg width="129" height="104" viewBox="0 0 129 104" fill="none" xmlns="http://www.w3.org/2000/svg">
<path d="M107.355 66.3609C102.017 85.195 84.2395 99.8962 63.9088 102.987C23.9195 109.068 -8.94036 74.1315 2.19528 37.2441C6.95951 21.4543 20.4838 8.11008 36.889 2.81231C66.5345 -6.76112 98.9464 8.93763 107.355 37.2983H128.975C129.089 37.7293 128.787 37.7909 128.587 38.0397C125.604 41.7217 120.098 45.7413 116.563 49.2066C116.055 49.7041 114.034 51.7237 114.109 52.1818L128.975 66.3609H107.355ZM102.666 66.3609H96.5447C96.029 66.3609 90.3322 60.1125 89.2512 59.4697C88.4255 61.3021 87.9175 63.2158 87.084 65.0507C78.9699 82.8774 56.222 90.2957 38.0611 81.0203C15.0866 69.2869 13.4612 38.4436 35.0135 24.4369C53.4192 12.4744 79.1523 19.7942 87.4226 39.2736C87.6727 39.8622 88.9751 44.197 89.2512 44.1896C90.3322 43.5468 96.029 37.2983 96.5447 37.2983H102.666C93.4293 9.33662 59.3009 -3.9115 31.5855 9.61986C-4.34804 27.1609 -4.31679 76.3876 31.5855 94.0394C59.2097 107.62 93.4893 94.2635 102.666 66.3609ZM81.8743 49.549C82.8563 50.1401 84.9715 48.7781 85.172 47.9628C85.4872 46.6846 83.2393 40.909 82.5281 39.4682C69.7775 13.6812 28.6082 19.5455 24.5603 47.8003C19.9003 80.3258 67.1701 93.5911 82.1895 64.8536C82.9892 63.3217 85.5159 57.0831 85.1746 55.6964C85.0887 55.3418 83.6769 54.13 83.2575 54.0537L70.2802 54.0364C69.1654 58.3933 66.6179 62.3833 62.3746 64.5901C56.459 67.6663 48.5065 66.7082 43.7918 62.0582C41.9371 60.2282 40.0669 57.3343 39.8897 54.7827L39.374 55.0339C39.822 53.8123 39.3193 52.7631 39.3609 51.4503C39.525 46.2388 43.0858 40.9779 48.048 38.7317C57.5921 34.4118 68.3422 39.909 70.1422 49.581C71.8301 49.3371 80.7178 50.0366 81.5227 49.5514C81.6581 49.4701 81.4497 49.1179 81.6998 49.1179C81.9499 49.1179 81.7415 49.4677 81.8769 49.549H81.8743ZM65.417 49.613C63.6379 41.2489 52.1116 38.648 46.407 45.3078C39.9106 52.8936 47.3161 64.0138 57.3994 61.8587C61.2884 61.0287 64.7267 57.7653 65.4144 54.0463L51.7703 54.0586C51.0853 53.8813 51.6401 50.2484 51.6088 49.6105H65.4144L65.417 49.613ZM118.295 41.4853H98.6286L90.1629 49.613H109.829L118.295 41.4853ZM118.295 62.174L109.829 54.0463H90.1629L98.6286 62.174H118.295Z" fill="#2E7D32" style="fill:#2E7D32;fill:color(display-p3 0.1804 0.4902 0.1961);fill-opacity:1;"/>
</svg>
