<svg width="20" height="20" viewBox="0 0 20 20" fill="none" xmlns="http://www.w3.org/2000/svg">
<path d="M13.75 0.000488281C17.2013 0.000488281 20 2.79924 20 6.25049V13.7505C19.9998 17.2016 17.2011 20.0005 13.75 20.0005H6.25C2.79887 20.0005 0.000197975 17.2016 0 13.7505V6.25049C0 2.79924 2.79875 0.000488281 6.25 0.000488281H13.75ZM6.25 1.87549C3.8375 1.87549 1.875 3.83799 1.875 6.25049V13.7505C1.8752 16.1628 3.83762 18.1255 6.25 18.1255H13.75C16.1624 18.1255 18.1248 16.1628 18.125 13.7505V6.25049C18.125 3.83799 16.1625 1.87549 13.75 1.87549H6.25Z" fill="white" style="fill:white;fill-opacity:1;"/>
<path d="M10 4.99976C12.7611 4.99976 14.9998 7.23865 15 9.99976C15 12.761 12.7613 14.9998 10 14.9998C7.23875 14.9998 5 12.761 5 9.99976C5.00016 7.23865 7.23885 4.99976 10 4.99976ZM10 6.87476C8.2776 6.87476 6.87517 8.27615 6.875 9.99976C6.875 11.7223 8.2775 13.1248 10 13.1248C11.7225 13.1248 13.125 11.7223 13.125 9.99976C13.1248 8.27615 11.7224 6.87476 10 6.87476Z" fill="white" style="fill:white;fill-opacity:1;"/>
<circle cx="15.3752" cy="4.62499" r="0.66625" fill="white" style="fill:white;fill-opacity:1;"/>
</svg>
